PathFileType	4	(X/Y/Z)	TVC_12_BWA3_walk_RCNL2025.trc
DataRate	CameraRate	NumFrames	NumMarkers	Units	OrigDataRate	OrigDataStartFrame	OrigNumFrames
100	100	7	27	mm	100	266	354
Frame#	Time	R_Shoulder			L_Shoulder			C7			J_Notch			R_Elbow			L_Elbow			R_Wrist			L_Wrist			R_Asis			L_Asis			R_Psis			L_Psis			Sacral			Thoracic			Sternum			R_Thigh_Lateral			R_Knee_Lateral			R_Shank_Lateral			R_Ankle_Lateral			R_Heel			R_Toe			L_Thigh_Lateral			L_Knee_Lateral			L_Shank_Lateral			L_Ankle_Lateral			L_Heel			L_Toe		
		X1	Y1	Z1	X2	Y2	Z2	X3	Y3	Z3	X4	Y4	Z4	X5	Y5	Z5	X6	Y6	Z6	X7	Y7	Z7	X8	Y8	Z8	X9	Y9	Z9	X10	Y10	Z10	X11	Y11	Z11	X12	Y12	Z12	X13	Y13	Z13	X14	Y14	Z14	X15	Y15	Z15	X16	Y16	Z16	X17	Y17	Z17	X18	Y18	Z18	X19	Y19	Z19	X20	Y20	Z20	X21	Y21	Z21	X22	Y22	Z22	X23	Y23	Z23	X24	Y24	Z24	X25	Y25	Z25	X26	Y26	Z26	X27	Y27	Z27
266	2.65000000	-53.317070	1348.878052	464.336304	-71.852272	1345.531372	46.805374	-169.529037	1418.143311	259.858734	-16.811874	1301.213745	257.081635	-176.407379	1033.796143	535.772766	-242.628906	1048.787720	-13.890591	-120.165565	789.864655	494.833664	-224.157822	815.776581	52.640692	-107.238335	912.449341	433.701233	-111.612968	921.795288	83.929634	-284.809174	950.787292	325.058838	-290.373566	962.643066	217.868988	-287.591370	956.715179	271.463913	-267.083221	1173.044800	260.469666	59.846100	1105.949585	248.433075	-3.285284	630.442017	461.178314	45.905544	511.586151	407.097168	13.707156	296.633148	443.392059	20.615488	85.148270	374.198151	-19.766127	83.518379	316.092590	154.421402	68.967270	352.045959	-183.843460	623.304993	48.107307	-212.591721	473.438416	139.923447	-270.299500	285.681519	105.963181	-302.184143	76.430542	182.502121	-347.783783	63.833622	236.236618	-160.475632	42.296005	196.969589
267	2.66000000	-46.409786	1346.560059	465.849121	-64.567123	1344.535767	48.285572	-162.514267	1416.598267	261.520111	-9.847485	1299.629028	258.470886	-169.342422	1031.164673	536.192261	-236.095703	1048.535522	-13.870954	-112.913841	787.340515	495.097351	-219.206047	815.329620	52.059863	-100.941994	910.084045	434.292450	-104.220657	920.794495	84.073318	-278.020355	948.706665	324.610138	-283.148529	960.898804	217.656387	-280.584442	954.802734	271.133263	-260.183044	1171.556274	261.171448	66.743050	1104.349976	249.287048	0.876420	627.381226	461.713318	51.699379	509.312012	406.511200	30.414816	293.521423	444.347931	46.260509	81.976799	375.903870	5.679845	78.045586	317.921753	180.999008	72.375908	353.332245	-177.120300	622.139709	48.670006	-210.584045	473.322388	140.360977	-269.657776	285.883820	106.554306	-302.108704	76.659569	183.154617	-347.503662	64.145058	237.072510	-160.538315	42.191189	197.117065
268	2.67000000	-39.436310	1344.114136	467.466492	-57.324722	1343.470825	49.874279	-155.479126	1414.972290	263.315643	-2.855062	1297.981079	259.952423	-162.179306	1028.368286	536.632507	-229.582001	1048.206665	-13.752149	-105.668037	784.630096	495.395767	-214.371574	814.723816	51.535088	-94.453102	907.552734	434.993011	-96.754250	919.734863	84.228523	-271.072784	946.478027	324.223267	-275.783630	959.003235	217.517120	-273.428207	952.740631	270.870193	-253.222946	1169.970093	262.004578	73.709557	1102.707764	250.208511	4.841963	623.828735	462.243286	57.313301	506.704712	405.903625	46.483337	290.706726	445.463989	70.523216	79.325272	377.937042	29.823864	73.191246	320.063263	205.904907	76.078003	354.980164	-170.313171	620.920532	49.212200	-208.216324	473.175720	140.785797	-268.803741	286.062927	107.121964	-301.999634	76.893433	183.776855	-347.222595	64.508743	237.865387	-160.603088	42.078182	197.270248
269	2.68000000	-32.395615	1341.566528	469.187836	-50.133530	1342.361694	51.570164	-148.420944	1413.289673	265.244324	4.169401	1296.296509	261.525909	-154.918274	1025.436279	537.098755	-223.081512	1047.812988	-13.519231	-98.426533	781.763489	495.729614	-209.659431	813.959808	51.096559	-87.741859	904.891357	435.776001	-89.214386	918.635071	84.398941	-263.953949	944.141724	323.922302	-268.277100	956.990662	217.461563	-266.115524	950.566193	270.691933	-246.196106	1168.310059	262.969360	80.753548	1101.052002	251.199051	8.725280	619.845032	462.739044	62.783466	503.816620	405.309784	61.671787	288.147308	446.667084	93.132370	77.106651	380.193787	52.427814	68.930481	322.376831	228.889633	79.824966	357.019073	-163.596207	619.688660	49.747368	-205.478073	472.998138	141.182800	-267.709564	286.227448	107.640930	-301.851227	77.147110	184.343262	-346.946136	64.930847	238.588150	-160.665176	41.969112	197.415970
270	2.69000000	-25.286583	1338.947388	471.011139	-42.999222	1341.235474	53.370167	-141.335907	1411.577759	267.303223	11.230775	1294.604614	263.190094	-147.559570	1022.402344	537.596558	-216.587524	1047.369385	-13.157363	-91.186832	778.775635	496.099792	-205.037628	813.063080	50.752235	-80.783844	902.143555	436.609772	-81.601425	917.515259	84.589218	-256.655579	941.745728	323.731934	-260.630066	954.901428	217.499222	-258.642822	948.323578	270.615578	-239.095703	1166.604126	264.063599	87.883179	1099.413696	252.260406	12.652558	615.525146	463.167450	68.137581	500.707581	404.770294	75.755920	285.772430	447.880188	113.854683	75.221382	382.560059	73.284180	65.232101	324.717682	249.750809	83.332291	359.440765	-157.089020	618.469910	50.282589	-202.363388	472.783997	141.538864	-266.345459	286.385498	108.090858	-301.655396	77.437767	184.828003	-346.677673	65.421356	239.214203	-160.723282	41.871956	197.546829
271	2.70000000	-18.108135	1336.290039	472.932861	-35.923679	1340.121216	55.269627	-134.218964	1409.866577	269.487152	18.334667	1292.936035	264.942719	-140.103287	1019.304626	538.131775	-210.092682	1046.894287	-12.652287	-83.945606	775.706055	496.507507	-200.438446	812.081421	50.488007	-73.561928	899.360413	437.460541	-73.915123	916.396912	84.805016	-249.174759	939.345032	323.675690	-252.846695	952.780884	217.637741	-251.010727	946.062958	270.656715	-231.915237	1164.883179	265.282104	95.106453	1097.825317	253.394730	16.745878	610.998596	463.495850	73.394379	497.444794	404.326782	88.543915	283.494995	449.027344	132.509186	73.567513	384.921478	92.225464	62.062428	326.950714	268.348358	86.301582	362.193054	-150.837341	617.282349	50.810818	-198.867416	472.524017	141.845505	-264.679596	286.545807	108.457359	-301.402039	77.784439	185.206665	-346.417847	65.995155	239.718689	-160.778015	41.790970	197.660812
272	2.71000000	-10.859414	1333.630981	474.948059	-28.904158	1339.049072	57.262482	-127.064003	1408.188232	271.788910	25.487230	1291.323242	266.780762	-132.549347	1016.185059	538.710144	-203.588882	1046.409302	-11.990807	-76.698736	772.598022	496.954590	-195.778526	811.073608	50.277909	-66.067696	896.600281	438.295074	-66.154388	915.302063	85.053162	-241.514786	936.999207	323.773621	-244.933929	950.677917	217.882217	-243.224358	943.838562	270.827919	-224.648834	1163.181152	266.616760	102.430756	1096.319458	254.604889	21.103491	606.422363	463.698578	78.565300	494.102722	404.017761	99.890144	281.228424	450.039551	148.978165	72.051414	387.173645	109.131683	59.388863	328.963623	284.614746	88.448090	365.182404	-144.809082	616.143250	51.310623	-194.982010	472.208527	142.099731	-262.679840	286.718689	108.732445	-301.080322	78.207703	185.458237	-346.163940	66.672531	240.079422	-160.830231	41.727730	197.759842
